<svg width="119" height="146" viewBox="0 0 119 146" fill="none" xmlns="http://www.w3.org/2000/svg">
<path d="M51.25 3.83494L50 3.11325L48.75 3.83494L5.44873 28.8349L4.19873 29.5566V31V81V82.4434L5.44873 83.1651L48.75 108.165L50 108.887L51.25 108.165L94.5513 83.1651L95.8013 82.4434V81V31V29.5566L94.5513 28.8349L51.25 3.83494Z" stroke="#404040" stroke-width="5"/>
<path d="M70.25 3.83494L69 3.11325L67.75 3.83494L24.4487 28.8349L23.1987 29.5566V31V81V82.4434L24.4487 83.1651L67.75 108.165L69 108.887L70.25 108.165L113.551 83.1651L114.801 82.4434V81V31V29.5566L113.551 28.8349L70.25 3.83494Z" stroke="#404040" stroke-width="5"/>
<path d="M60.75 38.8349L59.5 38.1132L58.25 38.8349L15.3817 63.5849L14.1317 64.3066V65.75V115.25V116.693L15.3817 117.415L58.25 142.165L59.5 142.887L60.75 142.165L103.618 117.415L104.868 116.693V115.25V65.75V64.3066L103.618 63.5849L60.75 38.8349Z" stroke="#404040" stroke-width="5"/>
</svg>
